<?xml version="1.0" encoding="UTF-8" standalone="no"?>
<!-- Generator: Adobe Illustrator 14.0.0, SVG Export Plug-In . SVG Version: 6.00 Build 43363)  -->

<svg
   xmlns:dc="http://purl.org/dc/elements/1.1/"
   xmlns:cc="http://creativecommons.org/ns#"
   xmlns:rdf="http://www.w3.org/1999/02/22-rdf-syntax-ns#"
   xmlns:svg="http://www.w3.org/2000/svg"
   xmlns="http://www.w3.org/2000/svg"
   xmlns:sodipodi="http://sodipodi.sourceforge.net/DTD/sodipodi-0.dtd"
   xmlns:inkscape="http://www.inkscape.org/namespaces/inkscape"
   version="1.0"
   id="Layer_1"
   x="0px"
   y="0px"
   width="60.78429"
   height="26.852531"
   viewBox="0 0 60.78429 26.85253"
   enable-background="new 0 0 99.999 33.547"
   xml:space="preserve"
   inkscape:version="0.48.3.1 r9886"
   sodipodi:docname="car.svg"><metadata
   id="metadata13"><rdf:RDF><cc:Work
       rdf:about=""><dc:format>image/svg+xml</dc:format><dc:type
         rdf:resource="http://purl.org/dc/dcmitype/StillImage" /><dc:title></dc:title></cc:Work></rdf:RDF></metadata><defs
   id="defs11" /><sodipodi:namedview
   pagecolor="#ffffff"
   bordercolor="#666666"
   borderopacity="1"
   objecttolerance="10"
   gridtolerance="10"
   guidetolerance="10"
   inkscape:pageopacity="0"
   inkscape:pageshadow="2"
   inkscape:window-width="737"
   inkscape:window-height="480"
   id="namedview9"
   showgrid="false"
   inkscape:zoom="3.0600306"
   inkscape:cx="32.57286"
   inkscape:cy="9.9017225"
   inkscape:window-x="65"
   inkscape:window-y="24"
   inkscape:window-maximized="0"
   inkscape:current-layer="Layer_1"
   fit-margin-top="0"
   fit-margin-left="0"
   fit-margin-right="0"
   fit-margin-bottom="0" />
<path
   style="fill:#eeeeee"
   d="M 60.305562,10.535 48.492694,8.8979996 45.757389,-3.8766301e-7 H 24.900388 L 20.391999,9.8189996 1.4916526,11.456 0,24.445 h 4.3187416 c 0.29602,-4.882 2.799736,-8.694 5.8456504,-8.694 3.045305,0 5.549021,3.812 5.845041,8.694 h 26.91722 c 0.296021,-4.882 2.799736,-8.694 5.845042,-8.694 3.031933,0 5.527138,3.778 5.841394,8.628 l 5.318648,-1.264 c 0.0012,0.001 1.636928,-10.099 0.373825,-12.58 z m -26.407238,0.23 H 21.402238 l 4.085937,-8.8980004 h 8.410149 V 10.765 z m 1.134848,0 V 1.8659996 h 7.894696 L 45.663781,10.764 H 35.033172 z"
   id="path3"
   inkscape:connector-curvature="0" />
<path
   style="fill:#eeeeee"
   d="m 10.164999,17.285 c -2.7298344,0 -4.9429994,2.141546 -4.9429994,4.783765 0,2.64222 2.213165,4.783766 4.9429994,4.783766 2.729226,0 4.942391,-2.141546 4.942391,-4.783766 0,-2.642219 -2.213165,-4.783765 -4.942391,-4.783765 z m 0,7.943722 c -1.8028694,0 -3.2641304,-1.414362 -3.2641304,-3.159368 0,-1.745007 1.461261,-3.159368 3.2641304,-3.159368 1.802262,0 3.263523,1.414361 3.263523,3.159368 0,1.745006 -1.461261,3.159368 -3.263523,3.159368 z"
   id="path5"
   inkscape:connector-curvature="0" />
<path
   style="fill:#eeeeee"
   d="m 48.772302,17.285 c -2.729225,0 -4.942391,2.141546 -4.942391,4.783765 0,2.64222 2.213166,4.783766 4.942391,4.783766 2.729835,0 4.943,-2.141546 4.943,-4.783766 0,-2.642219 -2.213165,-4.783765 -4.943,-4.783765 z m 0,7.943722 c -1.802261,0 -3.263521,-1.414362 -3.263521,-3.159368 0,-1.745007 1.46126,-3.159368 3.263521,-3.159368 1.80287,0 3.264131,1.414361 3.264131,3.159368 0,1.745006 -1.461261,3.159368 -3.264131,3.159368 z"
   id="path7"
   inkscape:connector-curvature="0" />
</svg>